<svg xmlns="http://www.w3.org/2000/svg" id="af1a0a4f-d400-462c-bcd8-e6e3f1488a8e" data-name="Layer 1" viewBox="0 0 350 100"><defs><style>.f25f81b9-c19e-4c26-8c26-290d88f4ba3c{fill:#9c63fa;}</style></defs><g id="b5c14a3a-ae57-40b9-b726-9e9428f64e9e" data-name="xu5Cbn.tif"><path class="f25f81b9-c19e-4c26-8c26-290d88f4ba3c" d="M5.27,90.25c7.16.52,14.06-5,15.71-12.4a19,19,0,0,0,.47-4.26c0-7,0-14.05,0-21.07C21.49,45,24.67,41,32,39.37l1-.23V23.39a25.87,25.87,0,0,0-15.5,4.79A27.09,27.09,0,0,0,5.27,51.35c-.09,12.36,0,24.73,0,37.1Z"></path><path class="f25f81b9-c19e-4c26-8c26-290d88f4ba3c" d="M39.28,40.94C45,45.7,46.51,51.47,43.46,57c-2.93,5.32-8.53,7-16,4.65V78.26c12.13,3.22,28.89-3.94,33-21.37,3.36-14.3-7.1-30.59-21.2-32.79Z"></path></g><g id="a48a4248-2184-4b9e-ae35-41f8864c2e0c" data-name="xu5Cbn.tif"><path class="f25f81b9-c19e-4c26-8c26-290d88f4ba3c" d="M194.51,12.14c7.16-.51,14.06,5.05,15.71,12.41a19,19,0,0,1,.47,4.26c0,7,0,14,0,21.07,0,7.55,3.21,11.52,10.51,13.15l1,.23V79a25.87,25.87,0,0,1-15.5-4.79,27.09,27.09,0,0,1-12.18-23.17c-.09-12.37,0-24.74,0-37.1Z"></path><path class="f25f81b9-c19e-4c26-8c26-290d88f4ba3c" d="M228.52,61.46c5.76-4.76,7.23-10.53,4.18-16.07-2.93-5.31-8.53-7-16-4.64V24.13c12.13-3.21,28.89,3.94,33,21.37,3.37,14.31-7.09,30.6-21.19,32.79Z"></path></g><path class="f25f81b9-c19e-4c26-8c26-290d88f4ba3c" d="M110,71.11a26.74,26.74,0,0,1-19.69,8A27.35,27.35,0,0,1,62.55,51.43,27.52,27.52,0,0,1,90.29,23.79,27.52,27.52,0,0,1,118,51.43,26.78,26.78,0,0,1,110,71.11ZM78.25,51.43a12,12,0,0,0,3.46,8.9,12.41,12.41,0,0,0,17.17,0,12.07,12.07,0,0,0,3.45-8.9,12.05,12.05,0,0,0-3.45-8.9,12.38,12.38,0,0,0-17.17,0A12,12,0,0,0,78.25,51.43Z"></path><path class="f25f81b9-c19e-4c26-8c26-290d88f4ba3c" d="M135.46,77.6H119.75V1.17h15.71Z"></path><path class="f25f81b9-c19e-4c26-8c26-290d88f4ba3c" d="M166.28,57.29l9.84-32h16.76L175,76q-4.4,12.25-11.57,17.65t-18.27,4.87V83.89q5.44,0,8.38-1.94t4.71-6.75L137.38,25.25h17.28Z"></path><path class="f25f81b9-c19e-4c26-8c26-290d88f4ba3c" d="M299.56,71.11a27.75,27.75,0,0,1-47.43-19.68,27.75,27.75,0,1,1,55.5,0A26.75,26.75,0,0,1,299.56,71.11ZM267.84,51.43a12.07,12.07,0,0,0,3.45,8.9,12.42,12.42,0,0,0,17.18,0,12.07,12.07,0,0,0,3.45-8.9,12.05,12.05,0,0,0-3.45-8.9,12.39,12.39,0,0,0-17.18,0A12.05,12.05,0,0,0,267.84,51.43Z"></path><path class="f25f81b9-c19e-4c26-8c26-290d88f4ba3c" d="M345.94,22.92V39H334.46V58.68q0,3.24,2.56,4.18c1.71.64,4.68.84,8.92.62V78.63q-15.82,1.68-22.07-3t-6.12-16.94V39h-8.92v-16h8.92V12.33l16.71-5v15.6Z"></path></svg>